<svg width="31" height="27" viewBox="0 0 31 27" fill="none" xmlns="http://www.w3.org/2000/svg">
<path d="M1.45713 2.10185C1.66711 2.03628 1.8697 1.92159 2.02425 1.80681C1.85034 1.70781 1.63446 1.61744 1.40409 1.58134L1.45713 2.10185ZM1.45713 2.10185C1.45356 2.10296 1.44998 2.10407 1.4464 2.10515M2.35415 1.05342C2.35407 1.05276 2.35396 1.0519 2.35382 1.05087C2.77072 1.10992 3.28417 1.21855 3.85414 1.36798C9.52569 2.86855 15.1416 4.62075 20.7535 6.44471C21.1933 6.58904 21.6319 6.73486 22.0726 6.88139L22.0736 6.88173C22.5139 7.02811 22.9563 7.17521 23.4005 7.321L23.4222 7.3281L23.4441 7.33422C24.6008 7.65628 25.7514 7.98944 26.8957 8.33369L26.8957 8.3337L26.9011 8.3353C26.9342 8.34503 26.9548 8.3583 26.967 8.36896C26.9665 8.36953 26.9659 8.37011 26.9653 8.3707L26.9594 8.37606L26.9594 8.37603L26.9534 8.38148C25.0567 10.121 23.1273 11.8234 21.1818 13.5123L20.3477 14.2364L21.1509 14.9946C22.1593 15.9465 23.1676 16.8998 24.1763 17.8534C25.1846 18.8066 26.1932 19.7601 27.2018 20.7123C28.0162 21.4858 28.8031 22.2677 29.5316 23.044C29.0355 23.3917 28.4997 23.7398 27.9939 24.0685L27.9482 24.0982L27.9048 24.1263C27.2846 24.5293 26.6409 24.9475 26.2973 25.2576C26.1577 25.3836 26.0647 25.4711 26.0027 25.5359C25.9924 25.5466 25.9757 25.5641 25.9555 25.5872C25.9193 25.6159 25.8677 25.6566 25.7937 25.715L25.7678 25.7355L25.7432 25.7576C25.6474 25.8442 25.5825 25.9001 25.5405 25.9351C25.5328 25.9392 25.5253 25.9432 25.518 25.9472C25.4935 25.9368 25.4659 25.9245 25.4352 25.9098C25.0894 25.7449 24.6095 25.4193 24.0731 24.9807C21.6151 22.9676 19.2277 20.8742 16.872 18.7372L16.2094 18.136L15.5385 18.728C14.7058 19.4628 13.867 20.1975 13.0282 20.9267C12.724 21.1874 12.4196 21.4469 12.114 21.7073L12.1138 21.7075C11.8077 21.9684 11.5005 22.2303 11.1931 22.4936L11.1753 22.5089L11.1582 22.525C10.9438 22.7269 10.7312 22.9286 10.52 23.1289L10.5182 23.1306C10.3061 23.3318 10.0956 23.5315 9.88372 23.7311C9.86377 23.7498 9.81964 23.7743 9.75305 23.7757C9.68671 23.7772 9.64185 23.7548 9.62078 23.7366L9.61822 23.7344C9.61642 23.7329 9.61514 23.7316 9.61428 23.7307L9.61412 23.7303L9.61139 23.7237L9.59513 23.6846C7.89564 19.4516 6.42746 15.1747 4.95062 10.8725C4.60491 9.86544 4.25872 8.85696 3.90897 7.84735L3.90874 7.84666C3.25013 5.94989 2.73712 4.08214 2.49293 2.39095L2.46278 2.00991L2.45204 2.00069L2.42476 1.7331C2.40687 1.5574 2.38888 1.38109 2.37573 1.25418C2.3692 1.19117 2.36367 1.13838 2.35989 1.10359C2.35827 1.0887 2.35612 1.06909 2.35415 1.05342ZM1.65363 3.43277C1.94196 4.95809 2.4069 6.57005 2.96406 8.17467C3.31175 9.17835 3.65655 10.1828 4.00141 11.1875C5.47945 15.4932 6.95847 19.8019 8.66937 24.0628L1.65363 3.43277Z" fill="white" stroke="black" stroke-width="2"/>
</svg>
